<svg width="512" height="512" viewBox="0 0 512 512" fill="none" xmlns="http://www.w3.org/2000/svg">
  <rect width="512" height="512" rx="116" fill="#111315"/>
  <rect x="36" y="36" width="440" height="440" rx="92" fill="#F7F1E8"/>
  <path d="M254.5 386C318.841 386 371 333.841 371 269.5C371 231.316 352.236 198.508 324.426 177.311C311.628 167.555 291.5 176.844 291.5 192.938V230.25C291.5 248.476 276.726 263.25 258.5 263.25C240.274 263.25 225.5 248.476 225.5 230.25V132.947C225.5 114.129 202.775 104.681 189.772 118.286C157.974 151.558 138 196.45 138 246.5C138 323.544 198.544 386 254.5 386Z" fill="#F26A21"/>
  <path d="M252.5 348C297.235 348 333.5 311.735 333.5 267C333.5 244.373 322.672 224.433 306.482 211.191V234.75C306.482 262.918 283.668 285.75 255.5 285.75C227.332 285.75 204.5 262.918 204.5 234.75V178.316C184.979 200.065 173 229.254 173 261.5C173 313.139 215.861 348 252.5 348Z" fill="#111315"/>
</svg>
